<svg fill="none" height="79" viewBox="0 0 273 79" width="273" xmlns="http://www.w3.org/2000/svg" xmlns:xlink="http://www.w3.org/1999/xlink"><linearGradient id="a" gradientUnits="userSpaceOnUse" x1="7.67061" x2="61.125" y1="64.3902" y2="39.6073"><stop offset=".1" stop-color="#3bea62"/><stop offset=".59" stop-color="#6b57ff"/></linearGradient><linearGradient id="b" gradientUnits="userSpaceOnUse" x1="59.9324" x2="1.33688" y1="59.6755" y2="1.07996"><stop offset=".26" stop-color="#6b57ff"/><stop offset=".65" stop-color="#07c3f2"/></linearGradient><path clip-rule="evenodd" d="m83 17.02h23.84.01v4.82h-9.25v25.15h-5.31v-25.15h-9.29zm33.09 7.53c2.16 0 4.08.49 5.76 1.46l-.02-.01c1.69.98 3 2.33 3.93 4.06s1.4 3.71 1.4 5.94v1.22h-17.29c.1 1.01.35 1.94.78 2.77.54 1.05 1.28 1.87 2.23 2.45.95.59 2.02.88 3.22.88 1.06 0 2.01-.21 2.85-.62.85-.41 1.54-.99 2.1-1.73h5.5c-.52 1.36-1.27 2.52-2.25 3.49s-2.17 1.72-3.57 2.25c-1.39.53-2.94.79-4.64.79-2.15 0-4.09-.49-5.81-1.48s-3.08-2.36-4.07-4.11c-.99-1.76-1.49-3.78-1.49-5.93s.5-4.1 1.5-5.84 2.37-3.11 4.1-4.1c1.74-.99 3.61-1.49 5.77-1.49zm-6.108 9.28h12.018c-.12-.67-.31-1.3-.59-1.89-.5-1.06-1.21-1.89-2.13-2.49s-1.98-.9-3.18-.9-2.27.29-3.22.87-1.69 1.38-2.23 2.4c-.328.6171-.538 1.2937-.668 2.01zm34.668-8.08c1.11.66 2.02 1.54 2.73 2.63v-3.31h4.97v21.92h-4.97v-3.31c-.71 1.09-1.62 1.98-2.73 2.63-1.36.8-2.95 1.2-4.76 1.2-1.94 0-3.68-.49-5.22-1.47s-2.75-2.34-3.62-4.09-1.31-3.72-1.31-5.92.44-4.17 1.31-5.92 2.08-3.11 3.61-4.09 3.27-1.47 5.23-1.47c1.81 0 3.4.4 4.76 1.2zm-.29 16.36c.95-.59 1.68-1.41 2.21-2.46s.79-2.26.79-3.63-.26-2.58-.79-3.63-1.27-1.87-2.21-2.46-2.05-.89-3.25-.89-2.27.3-3.21.89-1.67 1.41-2.19 2.46-.78 2.26-.78 3.63.26 2.58.78 3.64 1.25 1.88 2.19 2.46c.94.59 1.99.88 3.21.88s2.31-.3 3.25-.89zm38.19-17.56c1.56 0 2.92.35 4.1 1.06l-.01.03c1.18.71 2.08 1.71 2.72 3.01.63 1.3.95 2.81.95 4.54v13.83h-5.05v-13.23c0-.99-.17-1.84-.5-2.55-.33-.72-.81-1.26-1.44-1.65s-1.39-.58-2.27-.58c-.94 0-1.77.21-2.49.64s-1.28 1.04-1.67 1.84-.59 1.73-.59 2.8v12.71h-4.94v-13.23c0-.99-.17-1.84-.5-2.55-.34-.72-.83-1.26-1.46-1.65-.64-.39-1.4-.58-2.28-.58-.95 0-1.79.21-2.5.64-.72.43-1.26 1.04-1.65 1.84s-.58 1.73-.58 2.8v12.71h-5.05v-21.92h4.9v3.36c.61-1.14 1.39-2.05 2.37-2.71 1.16-.78 2.57-1.17 4.12-1.17s2.9.35 4.03 1.06 2.01 1.71 2.62 3.01l.06.15c.67-1.27 1.56-2.28 2.7-3.01 1.26-.8 2.73-1.2 4.41-1.2zm26.82-3.21c-1.84 0-3.51.46-5 1.38v-.02c-1.49.92-2.66 2.19-3.5 3.81s-1.26 3.44-1.26 5.47.42 3.85 1.26 5.47 2.01 2.89 3.5 3.81 3.16 1.38 5 1.38c1.36 0 2.62-.22 3.78-.68 1.17-.46 2.17-1.11 3-1.97s1.46-1.86 1.87-3h5.61c-.49 2.06-1.39 3.88-2.73 5.47s-3 2.82-5 3.7-4.19 1.32-6.57 1.32c-2.86 0-5.44-.67-7.74-2.02-2.31-1.34-4.12-3.2-5.44-5.56s-1.98-5-1.98-7.91.66-5.55 1.98-7.91 3.14-4.21 5.44-5.56c2.31-1.35 4.89-2.02 7.74-2.02 2.38 0 4.57.44 6.57 1.32 2 .87 3.66 2.11 5 3.7s2.25 3.42 2.73 5.47h-5.61c-.41-1.14-1.04-2.14-1.87-3-.84-.86-1.84-1.51-3-1.97-1.17-.45-2.42-.68-3.78-.68zm23.27 1.41h-5.76v-5.01h5.76zm-.35 24.23h-5.05v-21.92h5.05zm7.04-27.27h4.7v5.35h5.82l-.02 4.39h-5.82l.02 11.06c0 .6.2 1.1.59 1.49s.89.59 1.49.59h3.72v4.39h-4.73c-1.17 0-2.23-.25-3.16-.75s-1.66-1.2-2.18-2.08c-.52-.89-.78-1.89-.78-3l-.02-11.71h-3.85l.02-4.39h2.4c.55 0 .98-.16 1.31-.5.32-.33.49-.76.49-1.29zm28.2 16.2v-10.85l-.02-.03h5.05v20.48c0 1.69-.37 3.15-1.13 4.39-.75 1.24-1.83 2.2-3.23 2.88s-3.04 1.02-4.92 1.02h-8.2v-4.39h7.88c.96 0 1.77-.17 2.45-.49s1.2-.8 1.56-1.43c.37-.63.55-1.39.55-2.29l.04-3.15c-.61.97-1.39 1.75-2.34 2.34-1.25.77-2.72 1.16-4.4 1.16-1.57 0-2.95-.34-4.13-1.01s-2.1-1.65-2.76-2.94c-.65-1.29-.98-2.83-.98-4.63v-11.92h5.03v11.17c0 1.06.18 1.96.54 2.7s.87 1.31 1.54 1.7 1.47.59 2.4.59c.99 0 1.88-.22 2.65-.67s1.37-1.07 1.79-1.88.63-1.72.63-2.75zm-176.42 30.09c-.86 0-1.64.22-2.34.65v-.02c-.7.43-1.25 1.02-1.64 1.78s-.59 1.61-.59 2.56.2 1.8.59 2.56c.4.76.94 1.35 1.64 1.78s1.48.65 2.34.65c.64 0 1.23-.11 1.77-.32s1.01-.52 1.4-.92.69-.87.88-1.4h2.62c-.23.96-.66 1.82-1.28 2.56-.63.74-1.41 1.32-2.34 1.73s-1.96.62-3.07.62c-1.34 0-2.54-.32-3.62-.95s-1.92-1.5-2.54-2.6c-.62-1.11-.93-2.34-.93-3.7s.31-2.6.93-3.7c.61-1.1 1.46-1.97 2.54-2.6s2.29-.95 3.62-.95c1.11 0 2.14.21 3.07.62.94.41 1.71.98 2.34 1.73s1.05 1.6 1.28 2.56h-2.62c-.2-.53-.49-1-.88-1.4s-.86-.71-1.4-.92c-.55-.21-1.14-.32-1.77-.32zm13.34 1.5c1 0 1.9.23 2.69.68v-.01c.79.46 1.4 1.09 1.84 1.9s.66 1.74.66 2.78v.57h-8.07c.04.47.14.91.34 1.3.25.49.6.88 1.04 1.15.45.27.95.41 1.51.41.49 0 .94-.1 1.33-.29s.72-.46.98-.81h2.57c-.24.63-.59 1.18-1.05 1.63s-1.02.8-1.67 1.05-1.38.37-2.17.37c-1.01 0-1.92-.23-2.72-.69s-1.43-1.1-1.9-1.92-.7-1.77-.7-2.77.23-1.91.7-2.73 1.11-1.46 1.92-1.92c.81-.47 1.7-.7 2.7-.7zm-2.55 3.4c-.15.3-.24.62-.3.95h.01 5.6c-.06-.32-.14-.62-.27-.89-.24-.5-.57-.89-1-1.17s-.93-.42-1.49-.42-1.07.14-1.51.41-.79.64-1.04 1.12zm11.95-1.6c.27-.44.59-.79.98-1.06l.01.01c.55-.38 1.18-.57 1.91-.57h.38v2.38h-.66c-.53 0-.99.1-1.38.29s-.69.47-.9.83-.32.79-.32 1.28v5.54h-2.36v-10.25h2.34zm4.8-4.12h2.36.01v2.56h2.71v2.05h-2.71v5.33c0 .25.07.45.22.6s.35.22.61.22h1.88v2.05h-2.36c-.56 0-1.04-.1-1.45-.31s-.72-.5-.94-.89-.33-.84-.33-1.37zm9.3 1.48h-2.69v-2.34h2.69zm-.16 11.34h-2.36v-.01-10.25h2.36zm3.69-12.78c.24-.39.58-.69 1.01-.91h-.01c.43-.22.93-.33 1.49-.33h6.28v1.89h-5.84c-.27 0-.5.09-.67.26s-.26.4-.26.67v.95h2.66v2.05h-2.66v8.2h-2.36v-8.2h-1.81v-2.05h1.81v-1.17c0-.52.12-.97.36-1.36zm8.73 12.78h-2.36v-.01-10.25h2.36zm7.16-10.5c1 0 1.9.23 2.69.68v-.01c.79.46 1.4 1.09 1.84 1.9s.66 1.74.66 2.78v.57h-8.07c.04.47.14.91.34 1.3.25.49.6.88 1.04 1.15.45.27.95.41 1.51.41.49 0 .94-.1 1.33-.29s.72-.46.98-.81h2.57c-.24.63-.59 1.18-1.05 1.63s-1.02.8-1.67 1.05-1.38.37-2.17.37c-1.01 0-1.92-.23-2.72-.69s-1.43-1.1-1.9-1.92-.7-1.77-.7-2.77.23-1.91.7-2.73 1.11-1.46 1.92-1.92c.81-.47 1.7-.7 2.7-.7zm-2.55 3.4c-.15.3-.24.62-.3.95h.01 5.6c-.06-.32-.14-.62-.27-.89-.24-.5-.57-.89-1-1.17s-.93-.42-1.49-.42-1.07.14-1.51.41-.79.64-1.04 1.12zm17.25-1.6351c-.328-.4932-.745-.8979-1.26-1.1949-.64-.37-1.38-.56-2.23-.56-.91 0-1.73.23-2.45.69s-1.28 1.09-1.69 1.91-.61 1.74-.61 2.77.2 1.95.61 2.77.97 1.46 1.69 1.91c.72.46 1.53.69 2.44.69.85 0 1.59-.19 2.23-.56.52-.3.93-.71 1.27-1.21v1.53h2.36v-14.03h-2.36zm-1.39 6.4551c.44-.28.78-.66 1.03-1.15v.01c.25-.49.37-1.06.37-1.7s-.12-1.21-.37-1.7-.59-.87-1.03-1.15-.96-.42-1.52-.42-1.06.14-1.5.42-.79.66-1.03 1.15c-.25.49-.37 1.06-.37 1.7s.13 1.21.37 1.7c.25.49.59.88 1.03 1.15s.93.41 1.5.41 1.08-.14 1.52-.42zm18.32-11.74c.96 0 1.8.18 2.53.53h-.01c.73.35 1.29.85 1.69 1.5s.6 1.38.6 2.24-.21 1.61-.61 2.26-.97 1.16-1.71 1.52-1.6.54-2.58.54h-3.37v5.43h-2.49v-14.02zm1.11 6.22c.36-.18.63-.44.83-.77v.01c.2-.33.3-.73.3-1.17s-.1-.82-.3-1.15-.47-.58-.83-.76-.78-.27-1.27-.27h-3.3v4.38h3.3c.49 0 .91-.09 1.27-.27zm9.23-2.7c.83 0 1.56.15 2.18.44l.01.02c.62.29 1.11.72 1.45 1.28.35.56.52 1.22.52 1.97v6.8h-2.33v-1.49c-.28.52-.64.95-1.12 1.24-.53.33-1.17.49-1.91.49-.66 0-1.25-.12-1.77-.38s-.93-.61-1.23-1.06-.45-.97-.45-1.53.14-1.07.43-1.54.68-.86 1.19-1.16c.51-.31 1.08-.49 1.72-.56l2.53-.29c.18-.02.32-.1.43-.23.07-.09.11-.21.14-.34v-.2c0-.32-.07-.59-.22-.82s-.36-.41-.63-.53c-.27-.13-.6-.19-.97-.19s-.69.06-.97.17c-.28.12-.51.27-.67.46-.17.19-.27.41-.3.65h-2.33c.08-.61.3-1.16.67-1.64s.86-.86 1.49-1.14 1.31-.42 2.14-.42zm1.51 7.84c.19-.34.28-.73.28-1.18v-.98l-2.53.3c-.29.03-.55.12-.78.26s-.4.32-.53.54-.19.46-.19.73.07.52.22.73.35.38.62.49.57.17.92.17c.45 0 .84-.1 1.19-.28s.61-.44.8-.78zm7.35-6.04c.27-.44.59-.79.98-1.06l.01.01c.55-.38 1.18-.57 1.91-.57h.38v2.38h-.66c-.53 0-.99.1-1.38.29s-.69.47-.9.83-.32.79-.32 1.28v5.54h-2.36v-10.25h2.34zm4.8-4.12h2.36.01v2.56h2.71v2.05h-2.71v5.33c0 .25.07.45.22.6s.35.22.61.22h1.88v2.05h-2.36c-.56 0-1.04-.1-1.45-.31s-.72-.5-.94-.89-.33-.84-.33-1.37zm12.34 2.32c.73 0 1.38.16 1.93.48s.98.78 1.29 1.39.46 1.33.46 2.17v6.45h-2.35v-6.09c0-.49-.08-.91-.25-1.26s-.41-.62-.72-.8c-.31-.19-.69-.28-1.12-.28-.47 0-.88.11-1.24.32s-.64.5-.84.88-.3.81-.3 1.29v5.94h-2.36v-10.25h2.29v1.5c.3-.49.68-.89 1.15-1.19.59-.37 1.27-.55 2.06-.55zm10.77 0c1 0 1.9.23 2.69.68v-.01c.79.46 1.4 1.09 1.84 1.9s.66 1.74.66 2.78v.57h-8.07c.04.47.14.91.34 1.3.25.49.6.88 1.04 1.15.45.27.95.41 1.51.41.49 0 .94-.1 1.33-.29s.72-.46.98-.81h2.57c-.24.63-.59 1.18-1.05 1.63s-1.02.8-1.67 1.05-1.38.37-2.17.37c-1.01 0-1.92-.23-2.72-.69s-1.43-1.1-1.9-1.92-.7-1.77-.7-2.77.23-1.91.7-2.73 1.11-1.46 1.92-1.92c.81-.47 1.7-.7 2.7-.7zm-2.55 3.4c-.15.3-.24.62-.3.95h.01 5.6c-.06-.32-.14-.62-.27-.89-.24-.5-.57-.89-1-1.17s-.93-.42-1.49-.42-1.07.14-1.51.41-.79.64-1.04 1.12zm12.93-2.66c.55-.38 1.18-.57 1.91-.57l.01.01h.38v2.38h-.66c-.53 0-.99.1-1.38.29s-.69.47-.9.83-.32.79-.32 1.28v5.54h-2.36v-10.25h2.34v1.55c.27-.44.59-.79.98-1.06z" fill="#fff" fill-rule="evenodd"/><path d="m6 47.5501v12.2586c0 2.3038 1.8869 4.1612 4.1906 4.1244l11.043-.1763c1.1812-.0187 2.2975-.5431 3.0662-1.44l32.7065-38.1583c.6406-.7475.9931-1.7.9931-2.6843v-11.3492c0-2.27815-1.8469-4.125-4.125-4.125h-11.0029c-1.1894 0-2.3213.51375-3.1044 1.40874l-32.74648 37.42456c-.65812.7518-1.02062 1.7168-1.02062 2.7162z" fill="#3bea62"/><path d="m6 49.0129v10.8617c0 2.2781 1.84685 4.125 4.125 4.125h12.5655c.2 0 .3999-.0144.5981-.0438l37.1845-5.448c2.0256-.2969 3.5269-2.0344 3.5269-4.0812v-15.3974c0-2.2787-1.8475-4.1255-4.1262-4.1249l-18.5042.0044c-.4256 0-.8487.0662-1.2537.1956l-31.24527 9.9786c-1.70935.5463-2.86996 2.135-2.86996 3.9294z" fill="url(#a)"/><path d="m0 4.12558v34.12712c0 1.6581.993118 3.1549 2.5206 3.7999l37.4208 15.7973c.5181.2188 1.0756.3294 1.6381.3244l18.3286-.15c2.2649-.0187 4.0912-1.86 4.0912-4.1249v-17.6655c0-.8056-.2356-1.5931-.6781-2.2662l-21.1086-32.10897c-.7624-1.160614-2.058-1.85873-3.4468-1.85873h-34.64085c-2.2781 0-4.12495 1.84685-4.12495 4.12495z" fill="url(#b)"/><path d="m51.9995 12h-39.9995v39.9995h39.9995z" fill="#000"/><g fill="#fff"><path d="m30.0439 28.4584c.6644 1.1825 1.5788 2.1119 2.7438 2.7869v-.0025c1.165.6756 2.4656 1.0131 3.9018 1.0131 1.215 0 2.3294-.225 3.3444-.675 1.0143-.45 1.8599-1.0806 2.5349-1.8919.675-.8112 1.1269-1.7418 1.3557-2.7924h-3.0657c-.2.5431-.4981 1.0206-.8949 1.4312-.3963.4112-.8732.7275-1.4307.9487-.5575.2219-1.165.3325-1.8225.3325-.8862 0-1.6868-.2212-2.4012-.6643-.7143-.4432-1.2737-1.0519-1.6775-1.8275-.4037-.775-.6055-1.6487-.6055-2.6206s.2018-1.845.6055-2.6206c.4038-.775.9632-1.3844 1.6775-1.8275.715-.4431 1.515-.6644 2.4012-.6644.6575 0 1.265.1113 1.8225.3325.5569.2219 1.0344.5382 1.4307.9488.3968.4112.6949.8881.8949 1.4312h3.0657c-.2288-1.0506-.6807-1.9812-1.3557-2.7925-.6756-.8112-1.5206-1.4418-2.5349-1.8918-1.015-.45-2.1294-.675-3.3444-.675-1.4369 0-2.7375.3381-3.9018 1.0131-1.1644.675-2.0794 1.6044-2.7438 2.7869-.6643 1.1824-.9968 2.5024-.9968 3.9605s.3325 2.7781.9968 3.9606z"/><path d="m16.0016 16.9941h12.0367v2.6369h-4.5449v12.3692h-2.9263v-12.3692h-4.5661z"/><path d="m32.9998 44h-15.9998v3h15.9998z"/></g></svg>